<svg width="11" height="12" viewBox="0 0 11 12" fill="none" xmlns="http://www.w3.org/2000/svg">
<path d="M9.27982 4.23377L9.27982 4.23205C9.28093 3.69019 9.07273 3.16918 8.69926 2.77829C8.32746 2.3912 7.82402 2.17553 7.2998 2.17539C7.03826 2.17615 6.77953 2.22981 6.53908 2.33319C6.29846 2.43665 6.08106 2.58779 5.89994 2.77761L5.89847 2.77915L5.89847 2.77915L5.7877 2.89402C5.7124 2.9721 5.60862 3.01625 5.50014 3.01635C5.39167 3.01645 5.28781 2.9725 5.21236 2.89456L5.10117 2.77969L5.09856 2.77699L5.09857 2.77698C4.91803 2.58692 4.70095 2.43569 4.46053 2.33237C4.22011 2.22906 3.96132 2.17581 3.69984 2.17581C3.43836 2.17581 3.17957 2.22906 2.93915 2.33237C2.69873 2.43569 2.48165 2.58692 2.30111 2.77698L2.29934 2.77883C1.52669 3.58184 1.5266 4.88387 2.29938 5.68739L9.27982 4.23377ZM9.27982 4.23377C9.28103 4.77555 9.07298 5.29653 8.69968 5.68747C8.35433 6.04661 8.016 6.40701 7.67936 6.76561C7.00824 7.48052 6.34385 8.18826 5.64394 8.86451C5.56013 8.94313 5.42764 8.93947 5.34873 8.85756C5.3487 8.85753 5.34868 8.85751 5.34865 8.85748L2.2994 5.68741L9.27982 4.23377Z" stroke="#FD5F4A" stroke-width="0.8" stroke-linejoin="round"/>
</svg>
