<svg width="12" height="12" viewBox="0 0 12 12" fill="none" xmlns="http://www.w3.org/2000/svg">
<path d="M4.29362 4.11797L5.59262 1.50197C5.63043 1.42626 5.68859 1.36259 5.76056 1.31808C5.83254 1.27357 5.91549 1.25 6.00012 1.25C6.08474 1.25 6.1677 1.27357 6.23967 1.31808C6.31165 1.36259 6.3698 1.42626 6.40762 1.50197L7.70662 4.11797L10.6106 4.53997C10.6944 4.55159 10.7732 4.58652 10.8381 4.64078C10.9029 4.69504 10.9512 4.76644 10.9774 4.84683C11.0037 4.92723 11.0068 5.01338 10.9864 5.09545C10.966 5.17752 10.9229 5.2522 10.8621 5.31097L8.76112 7.34597L9.25712 10.221C9.32062 10.59 8.93062 10.871 8.59712 10.697L6.00012 9.33897L3.40262 10.697C3.06962 10.8715 2.67962 10.59 2.74312 10.2205L3.23912 7.34547L1.13812 5.31047C1.07761 5.25166 1.03482 5.17705 1.0146 5.09513C0.994384 5.01321 0.997555 4.92725 1.02375 4.84704C1.04995 4.76683 1.09813 4.69558 1.1628 4.64139C1.22748 4.58719 1.30606 4.55223 1.38962 4.54047L4.29362 4.11797Z" fill="#FDB54A" stroke="#FDB54A" stroke-linecap="round" stroke-linejoin="round"/>
</svg>
