<svg width="76" height="211" viewBox="0 0 76 211" fill="none" xmlns="http://www.w3.org/2000/svg">
<path d="M74.4541 209.995L51.666 200.65C50.3693 200.118 49.9973 198.443 50.7574 197.265C56.3064 188.671 54.2022 175.488 52.2608 169.512C46.8366 154.445 53.8321 140.589 59.1251 134.061C59.8987 133.107 59.7647 131.67 58.7639 130.958L52.8778 126.77C52.2492 126.322 51.4201 126.275 50.7441 126.646L49.0019 127.605C48.335 127.972 47.5181 127.93 46.8917 127.498L40.3997 123.017C39.9215 122.687 39.3238 122.58 38.7608 122.723L34.2418 123.878C33.7589 124.001 33.2474 123.94 32.8066 123.708L2.07695 107.491C1.21077 107.034 0.800279 106.019 1.10516 105.089L9.98582 77.9782C10.0756 77.7041 10.2233 77.4526 10.4189 77.2407L15.6602 71.5626C15.9771 71.2193 16.1645 70.7762 16.1901 70.3096L18.1357 34.8015C18.1517 34.5094 18.1038 34.2174 17.9953 33.9459L4.83263 1.0052" stroke="#FDB54A" stroke-width="2" stroke-linecap="round"/>
</svg>
