<svg width="20" height="20" viewBox="0 0 20 20" fill="none" xmlns="http://www.w3.org/2000/svg">
<path d="M5.83333 7.5L9.99999 10.4167L14.1667 7.5" stroke="#252B5C" stroke-width="1.6" stroke-linecap="round" stroke-linejoin="round"/>
<path d="M1.66666 14.1665V5.83317C1.66666 5.39114 1.84226 4.96722 2.15482 4.65466C2.46738 4.3421 2.8913 4.1665 3.33333 4.1665H16.6667C17.1087 4.1665 17.5326 4.3421 17.8452 4.65466C18.1577 4.96722 18.3333 5.39114 18.3333 5.83317V14.1665C18.3333 14.6085 18.1577 15.0325 17.8452 15.345C17.5326 15.6576 17.1087 15.8332 16.6667 15.8332H3.33333C2.8913 15.8332 2.46738 15.6576 2.15482 15.345C1.84226 15.0325 1.66666 14.6085 1.66666 14.1665Z" stroke="#252B5C" stroke-width="1.6"/>
</svg>
