<svg width="10" height="10" viewBox="0 0 10 10" fill="none" xmlns="http://www.w3.org/2000/svg">
<path d="M3.49385 3.43167L4.55088 1.25167C4.58165 1.18858 4.62897 1.13552 4.68754 1.09843C4.74611 1.06134 4.81361 1.04169 4.88247 1.04169C4.95133 1.04169 5.01883 1.06134 5.0774 1.09843C5.13597 1.13552 5.1833 1.18858 5.21407 1.25167L6.27109 3.43167L8.63415 3.78334C8.70231 3.79302 8.76644 3.82213 8.81922 3.86734C8.872 3.91256 8.9113 3.97206 8.93264 4.03906C8.95398 4.10605 8.9565 4.17784 8.93991 4.24623C8.92332 4.31463 8.88828 4.37686 8.8388 4.42584L7.12917 6.12167L7.53278 8.5175C7.58445 8.825 7.26709 9.05917 6.99572 8.91417L4.88247 7.7825L2.76882 8.91417C2.49785 9.05959 2.1805 8.82501 2.23217 8.51709L2.63578 6.12125L0.92614 4.42542C0.876904 4.37641 0.842082 4.31424 0.825631 4.24597C0.80918 4.1777 0.81176 4.10607 0.833078 4.03923C0.854397 3.97239 0.893598 3.91301 0.946227 3.86785C0.998855 3.82269 1.0628 3.79355 1.13079 3.78375L3.49385 3.43167Z" fill="#FDB54A" stroke="#FDB54A" stroke-linecap="round" stroke-linejoin="round"/>
</svg>
