<svg width="25" height="25" viewBox="0 0 25 25" fill="none" xmlns="http://www.w3.org/2000/svg">
<path fill-rule="evenodd" clip-rule="evenodd" d="M12.4995 4.96719L12.4679 4.96694C12.0211 4.96694 11.5878 5.11467 11.2366 5.38558L11.2365 5.38563L5.6334 9.70647L5.63305 9.70673C5.15804 10.0726 4.87723 10.6288 4.86324 11.2193L5.59821 17.0005C5.67088 17.572 5.69768 17.7552 5.76685 17.9549C5.83809 18.1607 5.90042 18.2689 6.11167 18.6211C6.36213 19.0387 6.5066 19.1819 6.74937 19.4226L6.75878 19.4319C6.92898 19.6007 7.26235 19.7669 7.6982 19.8882C7.953 19.9591 8.20058 20.0031 8.40021 20.0268V18C8.40021 17.4106 8.56386 16.5621 9.10175 15.8151C9.69839 14.9864 10.6787 14.4 12.0002 14.4H13.0002C13.5896 14.4 14.438 14.5636 15.1851 15.1015C16.0138 15.6981 16.6002 16.6785 16.6002 18V20.0266C16.7996 20.0029 17.0466 19.9589 17.3007 19.8882C17.7366 19.7669 18.0699 19.6007 18.2401 19.4319L18.2495 19.4226C18.4923 19.1819 18.6368 19.0387 18.8872 18.6211C19.0985 18.2689 19.1608 18.1607 19.2321 17.9549C19.3012 17.7552 19.328 17.572 19.4007 17.0005L20.1357 11.2193C20.1217 10.6288 19.8409 10.0726 19.3659 9.70673L19.3655 9.70647L13.7624 5.38563L13.7623 5.38558C13.4111 5.11467 12.9778 4.96694 12.531 4.96694L12.4995 4.96719V4.11861L14.7395 4.11865L20.3422 8.43917L20.3426 8.43944C21.2208 9.11608 21.7362 10.1589 21.7362 11.2657C21.7362 11.2994 21.7341 11.3331 21.7298 11.3666L20.9879 17.2023L20.9803 17.2621C20.918 17.7535 20.8734 18.1046 20.744 18.4784C20.6148 18.8517 20.4726 19.0887 20.2748 19.4183L20.2594 19.444C19.9091 20.0281 19.6609 20.2764 19.3666 20.5681C18.9064 21.0244 18.2577 21.2827 17.7297 21.4296C17.2719 21.557 16.8132 21.6254 16.4654 21.6438C16.4645 21.6458 16.4636 21.6478 16.4627 21.6498H15.0002V18.5C15.0002 18.0353 15.0002 17.803 14.9618 17.6098C14.804 16.8164 14.1838 16.1962 13.3904 16.0384C13.1972 16 12.9649 16 12.5002 16C12.0356 16 11.8032 16 11.61 16.0384C10.8166 16.1962 10.1965 16.8164 10.0386 17.6098C10.0002 17.803 10.0002 18.0353 10.0002 18.5V21.6498H8.53767C8.53681 21.6478 8.53595 21.6459 8.53509 21.6439C8.18705 21.6256 7.72766 21.5572 7.26925 21.4296C6.74124 21.2827 6.09247 21.0244 5.63228 20.5681C5.338 20.2764 5.08981 20.0281 4.73952 19.444L4.72411 19.4183C4.52635 19.0887 4.38415 18.8517 4.25492 18.4784C4.12547 18.1046 4.08093 17.7535 4.01858 17.2621L4.01099 17.2023L3.26908 11.3666C3.26483 11.3331 3.2627 11.2994 3.2627 11.2657C3.2627 10.1589 3.77812 9.11608 4.65634 8.43944L4.65668 8.43917L10.2594 4.11865L12.4995 4.11861V4.96719ZM12.4995 4.11858L10.2595 4.11861C10.8917 3.63102 11.6688 3.36694 12.4679 3.36694L12.4995 3.36708V4.11858ZM12.4995 4.11858L14.7394 4.11861C14.1072 3.63102 13.3301 3.36694 12.531 3.36694L12.4995 3.36708V4.11858Z" fill="#252B5C"/>
</svg>
