<svg width="40" height="40" viewBox="0 0 40 40" fill="none" xmlns="http://www.w3.org/2000/svg">
<path d="M14.3117 13.7269L18.6417 5.0069C18.7678 4.75454 18.9616 4.54228 19.2016 4.39393C19.4415 4.24557 19.718 4.16699 20.0001 4.16699C20.2822 4.16699 20.5587 4.24557 20.7986 4.39393C21.0385 4.54228 21.2324 4.75454 21.3584 5.0069L25.6884 13.7269L35.3684 15.1336C35.6476 15.1723 35.9103 15.2887 36.1265 15.4696C36.3427 15.6504 36.5037 15.8885 36.5911 16.1564C36.6786 16.4244 36.6889 16.7116 36.6209 16.9852C36.5529 17.2587 36.4094 17.5077 36.2067 17.7036L29.2034 24.4869L30.8567 34.0702C31.0684 35.3002 29.7684 36.2369 28.6567 35.6569L20.0001 31.1302L11.3417 35.6569C10.2317 36.2386 8.93174 35.3002 9.1434 34.0686L10.7967 24.4852L3.7934 17.7019C3.59171 17.5059 3.44907 17.2572 3.38168 16.9841C3.31429 16.711 3.32486 16.4245 3.41219 16.1571C3.49951 15.8898 3.6601 15.6523 3.87569 15.4716C4.09127 15.291 4.35321 15.1744 4.63174 15.1352L14.3117 13.7269Z" fill="#FDB54A" stroke="#FDB54A" stroke-linecap="round" stroke-linejoin="round"/>
</svg>
