<svg width="10" height="10" viewBox="0 0 10 10" fill="none" xmlns="http://www.w3.org/2000/svg">
<path d="M3.57745 3.43172L4.65995 1.25172C4.69146 1.18863 4.73992 1.13557 4.7999 1.09848C4.85988 1.06139 4.92901 1.04175 4.99953 1.04175C5.07005 1.04175 5.13918 1.06139 5.19916 1.09848C5.25914 1.13557 5.3076 1.18863 5.33911 1.25172L6.42161 3.43172L8.84161 3.78339C8.91141 3.79307 8.97709 3.82218 9.03114 3.8674C9.08519 3.91261 9.12544 3.97211 9.14729 4.03911C9.16915 4.10611 9.17173 4.1779 9.15473 4.24629C9.13774 4.31468 9.10186 4.37691 9.05119 4.42589L7.30036 6.12172L7.71369 8.51756C7.76661 8.82506 7.44161 9.05923 7.16369 8.91422L4.99953 7.78256L2.83495 8.91422C2.55745 9.05964 2.23245 8.82506 2.28536 8.51714L2.6987 6.12131L0.947863 4.42547C0.89744 4.37646 0.861779 4.31429 0.844931 4.24602C0.828084 4.17775 0.830726 4.10613 0.852558 4.03928C0.87439 3.97244 0.914536 3.91307 0.968433 3.8679C1.02233 3.82274 1.08782 3.79361 1.15745 3.78381L3.57745 3.43172Z" fill="#FDB54A" stroke="#FDB54A" stroke-linecap="round" stroke-linejoin="round"/>
</svg>
