<svg width="38" height="47" viewBox="0 0 38 47" fill="none" xmlns="http://www.w3.org/2000/svg">
<path d="M37.9976 19.5367C37.8607 27.9952 25.5899 41.0841 20.604 46.0586C19.4567 47.2033 17.6374 47.1738 16.5278 45.9927C11.7054 40.8595 -0.135513 27.3804 0.00134769 18.9219C0.0838565 13.8226 2.16457 8.96454 5.78575 5.41643C9.40693 1.86831 14.2719 -0.0791972 19.3106 0.00232936C24.3492 0.0838559 29.1486 2.18774 32.6531 5.85115C36.1576 9.51456 38.0801 14.4374 37.9976 19.5367Z" fill="#252B5C"/>
<path opacity="0.25" d="M18.7498 34.646C22.8993 34.7131 26.9054 33.1292 29.887 30.2425C32.8686 27.3559 34.5813 23.4031 34.6485 19.2536C34.7156 15.1042 33.1316 11.098 30.245 8.11646C27.3584 5.13488 23.4056 3.42213 19.2561 3.35499C15.1067 3.28785 11.1005 4.87182 8.11893 7.75845C5.13736 10.6451 3.4246 14.5979 3.35746 18.7473C3.29032 22.8968 4.8743 26.903 7.76092 29.8845C10.6475 32.8661 14.6004 34.5789 18.7498 34.646Z" fill="white"/>
</svg>
