<svg width="9" height="9" viewBox="0 0 9 9" fill="none" xmlns="http://www.w3.org/2000/svg">
<path d="M3.22009 3.08848L4.19434 1.12648C4.2227 1.0697 4.26632 1.02194 4.3203 0.98856C4.37428 0.955181 4.4365 0.9375 4.49997 0.9375C4.56344 0.9375 4.62565 0.955181 4.67963 0.98856C4.73362 1.02194 4.77723 1.0697 4.80559 1.12648L5.77984 3.08848L7.95784 3.40498C8.02066 3.41369 8.07977 3.43989 8.12842 3.48058C8.17706 3.52128 8.21329 3.57483 8.23296 3.63513C8.25263 3.69542 8.25495 3.76003 8.23965 3.82159C8.22436 3.88314 8.19207 3.93915 8.14647 3.98323L6.57072 5.50948L6.94272 7.66573C6.99034 7.94248 6.69784 8.15323 6.44772 8.02273L4.49997 7.00423L2.55184 8.02273C2.30209 8.1536 2.00959 7.94248 2.05722 7.66535L2.42922 5.5091L0.853467 3.98285C0.808087 3.93874 0.775991 3.88279 0.760829 3.82135C0.745666 3.7599 0.748044 3.69544 0.767693 3.63528C0.787342 3.57512 0.823473 3.52169 0.87198 3.48104C0.920487 3.44039 0.979424 3.41417 1.04209 3.40535L3.22009 3.08848Z" fill="#FFC42D"/>
</svg>
