<svg width="11" height="12" viewBox="0 0 11 12" fill="none" xmlns="http://www.w3.org/2000/svg">
<path d="M9.28006 4.23377L9.28006 4.23205C9.28118 3.69019 9.07298 3.16918 8.69951 2.77829C8.3277 2.3912 7.82426 2.17553 7.30005 2.17539C7.03851 2.17615 6.77978 2.22981 6.53932 2.33319C6.29871 2.43665 6.08131 2.58779 5.90019 2.77761L5.89872 2.77915L5.89871 2.77915L5.78794 2.89402C5.71264 2.9721 5.60886 3.01625 5.50039 3.01635C5.39192 3.01645 5.28805 2.9725 5.21261 2.89456L5.10142 2.77969L5.0988 2.77699L5.09882 2.77698C4.91827 2.58692 4.70119 2.43569 4.46077 2.33237C4.22036 2.22906 3.96157 2.17581 3.70008 2.17581C3.4386 2.17581 3.17981 2.22906 2.93939 2.33237C2.69897 2.43569 2.48189 2.58692 2.30135 2.77698L2.29958 2.77883C1.52694 3.58184 1.52684 4.88387 2.29963 5.68739L9.28006 4.23377ZM9.28006 4.23377C9.28127 4.77555 9.07323 5.29653 8.69992 5.68747C8.35457 6.04661 8.01624 6.40701 7.6796 6.76561C7.00848 7.48052 6.34409 8.18826 5.64419 8.86451C5.56038 8.94313 5.42788 8.93947 5.34897 8.85756C5.34895 8.85753 5.34892 8.85751 5.3489 8.85748L2.29964 5.68741L9.28006 4.23377Z" stroke="#FD5F4A" stroke-width="0.8" stroke-linejoin="round"/>
</svg>
