<svg width="24" height="24" viewBox="0 0 24 24" fill="none" xmlns="http://www.w3.org/2000/svg">
<path d="M9.17156 4.92878L10.5858 6.34299L9.17156 4.92878ZM13.4142 9.17142L14.8284 10.5856L13.4142 9.17142ZM17.6568 13.4141L19.0711 14.8283L17.6568 13.4141ZM2.10049 11.9998C1.72542 12.3749 1.51471 12.8836 1.51471 13.4141C1.51471 13.9445 1.72542 14.4532 2.10049 14.8283L4.22181 16.9496C4.59689 16.5745 5.10559 16.3638 5.63603 16.3638C6.16646 16.3638 6.67517 16.5745 7.05024 16.9496C7.42531 17.3247 7.63603 17.8334 7.63603 18.3638C7.63603 18.8942 7.42531 19.403 7.05024 19.778L9.17156 21.8993C9.54663 22.2744 10.0553 22.4851 10.5858 22.4851C11.1162 22.4851 11.6249 22.2744 12 21.8993L21.8995 11.9999C22.2746 11.6248 22.4853 11.1161 22.4853 10.5856C22.4853 10.0552 22.2746 9.5465 21.8995 9.17142L19.7782 7.0501C19.4031 7.42518 18.8944 7.63589 18.3639 7.63589C17.8335 7.63589 17.3248 7.42517 16.9497 7.0501C16.5747 6.67503 16.3639 6.16632 16.3639 5.63589C16.3639 5.10546 16.5747 4.59675 16.9497 4.22167L14.8284 2.10035C14.4533 1.72528 13.9446 1.51457 13.4142 1.51457C12.8838 1.51457 12.3751 1.72528 12 2.10035L2.10049 11.9998Z" stroke="white" stroke-width="1.6" stroke-linecap="round" stroke-linejoin="round"/>
</svg>
