<svg width="20" height="20" viewBox="0 0 20 20" fill="none" xmlns="http://www.w3.org/2000/svg">
<path d="M8.94558 5.09754C9.0398 5.05268 9.14284 5.02943 9.2472 5.02949H13.6236C14.1419 5.02949 14.6253 5.06322 15.067 5.13431C15.1906 5.15402 15.3135 5.17755 15.4357 5.20487C15.6088 5.24307 15.7799 5.28982 15.9484 5.34496C16.1656 5.41749 16.3678 5.50195 16.5537 5.60086C16.7728 4.20313 16.5521 3.25261 15.7964 2.39156C14.9642 1.44355 13.4612 1.03711 11.5377 1.03711H5.95493C5.56186 1.03711 5.22747 1.32327 5.16587 1.71126L2.8415 16.4525C2.7953 16.7436 3.02039 17.0065 3.31455 17.0065H6.76136L8.55705 5.61924C8.5747 5.50731 8.61929 5.40135 8.68697 5.31047C8.75465 5.2196 8.8434 5.14652 8.94558 5.09754Z" fill="white" fill-opacity="0.85"/>
<path d="M16.4965 5.928C15.7606 9.70765 13.2415 11.0149 10.0242 11.0149H8.38607C7.99306 11.0149 7.66112 11.3012 7.60006 11.6892L6.52329 18.5152C6.48306 18.7696 6.6798 19.0001 6.93719 19.0001H9.84236C10.0088 19.0001 10.1697 18.9407 10.2962 18.8326C10.4228 18.7245 10.5066 18.5748 10.5326 18.4104L10.5609 18.2624L11.1084 14.7921L11.1437 14.6004C11.1697 14.436 11.2535 14.2863 11.38 14.1782C11.5065 14.0701 11.6674 14.0107 11.8338 14.0106H12.2686C15.0829 14.0106 17.2865 12.8673 17.9305 9.56063C18.1992 8.17878 18.0602 7.02507 17.3491 6.2147C17.1335 5.96925 16.8656 5.76654 16.5536 5.60107C16.5367 5.70792 16.5184 5.8162 16.4965 5.928Z" fill="white" fill-opacity="0.75"/>
<path d="M15.7835 5.29367C15.6688 5.26017 15.5529 5.2305 15.4362 5.20473C15.314 5.17786 15.191 5.15449 15.0675 5.13465C14.6253 5.06308 14.1423 5.0293 13.6236 5.0293H9.24767C9.14324 5.02906 9.04011 5.05251 8.94605 5.09788C8.84376 5.14671 8.75491 5.21974 8.6872 5.31065C8.61949 5.40155 8.57496 5.50759 8.55746 5.61958L7.62736 11.517L7.60049 11.6889C7.66168 11.3008 7.99356 11.0146 8.38663 11.0146H10.0248C13.242 11.0146 15.7611 9.70783 16.497 5.92765C16.5189 5.81585 16.5373 5.70751 16.5542 5.60072C16.3678 5.50235 16.1661 5.41735 15.9489 5.3453C15.8941 5.32713 15.839 5.30992 15.7836 5.29367" fill="white"/>
</svg>
