<svg width="20" height="20" viewBox="0 0 20 20" fill="none" xmlns="http://www.w3.org/2000/svg">
<path d="M14.6862 15.1998C13.4455 16.3187 11.8023 16.9998 9.99998 16.9998C8.08727 16.9998 6.35373 16.2326 5.09027 14.9893" stroke="#252B5C" stroke-width="1.6" stroke-linecap="round"/>
<path d="M14.3768 14.8413C14.2463 14.6792 14.1066 14.5236 13.9581 14.375C12.8641 13.2811 11.3804 12.6665 9.83332 12.6665C8.28623 12.6665 6.80249 13.2811 5.70853 14.375C5.51215 14.5714 5.33121 14.7804 5.1665 15" stroke="#252B5C" stroke-width="1.6" stroke-linecap="round" stroke-linejoin="round"/>
<path d="M10 12C10.7956 12 11.5587 11.6839 12.1213 11.1213C12.6839 10.5587 13 9.79565 13 9C13 8.20435 12.6839 7.44129 12.1213 6.87868C11.5587 6.31607 10.7956 6 10 6C9.20435 6 8.44129 6.31607 7.87868 6.87868C7.31607 7.44129 7 8.20435 7 9C7 9.79565 7.31607 10.5587 7.87868 11.1213C8.44129 11.6839 9.20435 12 10 12V12Z" stroke="#252B5C" stroke-width="1.6" stroke-linecap="round" stroke-linejoin="round"/>
</svg>
