<svg width="20" height="20" viewBox="0 0 20 20" fill="none" xmlns="http://www.w3.org/2000/svg">
<path d="M14.3051 11.1603C14.4514 11.1319 14.6028 11.145 14.7421 11.1981L17.5638 12.2731C17.874 12.3913 18.079 12.6888 18.079 13.0207V15.6258C18.079 16.9555 16.9025 18.0529 15.5115 17.7508L15.511 17.7507C13.2792 17.2646 9.10668 16.0244 6.17368 13.0914C3.35736 10.2751 2.42187 6.39779 2.10836 4.3208L14.3051 11.1603ZM14.3051 11.1603L11.5833 11.6877C9.9111 10.8093 8.91219 9.84346 8.29649 8.43963L8.81237 5.67262C8.83912 5.52914 8.82611 5.38107 8.77475 5.24446M14.3051 11.1603L8.77475 5.24446M8.77475 5.24446L7.71716 2.43148C7.59989 2.11957 7.30156 1.91301 6.96833 1.91301M8.77475 5.24446L6.96833 1.91301M6.96833 1.91301H4.24185M6.96833 1.91301H4.24185M4.24185 1.91301C2.98648 1.91301 1.90456 2.97413 2.10828 4.32029L4.24185 1.91301Z" stroke="#252B5C" stroke-width="1.6" stroke-linecap="round" stroke-linejoin="round"/>
</svg>
