<svg width="20" height="20" viewBox="0 0 20 20" fill="none" xmlns="http://www.w3.org/2000/svg">
<path d="M16.6668 8.33317C16.6668 12.0148 10.0002 18.3332 10.0002 18.3332C10.0002 18.3332 3.3335 12.0148 3.3335 8.33317C3.3335 6.56506 4.03588 4.86937 5.28612 3.61913C6.53636 2.36888 8.23205 1.6665 10.0002 1.6665C11.7683 1.6665 13.464 2.36888 14.7142 3.61913C15.9645 4.86937 16.6668 6.56506 16.6668 8.33317Z" fill="#FA712D"/>
<path d="M10 8.99951C10.2652 8.99951 10.5196 8.89415 10.7071 8.70662C10.8946 8.51908 11 8.26473 11 7.99951C11 7.7343 10.8946 7.47994 10.7071 7.29241C10.5196 7.10487 10.2652 6.99951 10 6.99951C9.73478 6.99951 9.48043 7.10487 9.29289 7.29241C9.10536 7.47994 9 7.7343 9 7.99951C9 8.26473 9.10536 8.51908 9.29289 8.70662C9.48043 8.89415 9.73478 8.99951 10 8.99951Z" fill="white" stroke="white" stroke-width="1.25" stroke-linecap="round" stroke-linejoin="round"/>
</svg>
